<svg id="f616325b-2e1a-4dfd-bd45-42b5c8f25a29" data-name="Layer 5" xmlns="http://www.w3.org/2000/svg" xmlns:xlink="http://www.w3.org/1999/xlink" viewBox="0 0 1605.3 599.23"><defs><linearGradient id="5e414e58-b1df-411e-8c95-726e986be538" x1="510.29" y1="692.73" x2="510.29" y2="93.5" gradientUnits="userSpaceOnUse"><stop offset="0" stop-color="#3798cf"/><stop offset="1" stop-color="#85edee"/></linearGradient></defs><title>plt-logo-01</title><path d="M742.53,462.5S722.91,430.33,661,428.22h0l-32-53.4L579.9,293.45l-55.64,79.17-77-117.69-21.4,19.26-53.5-74.9L284.59,364.06l-36.38-21.4L229.31,373S235.37,218.55,383,145.79s267.49,6.42,267.49,6.42S858.09,265.63,766.07,511.72c0,0-59.92-40.66-137-25.68s-132.68,53.5-220.42,70.62-145.51-12.84-169-30c0,0,55.64,119.83,186.17,156.21,0,0,203.3,57.78,323.13-107,0,0-27.82-23.54-68.48-30s-85.59,12.84-85.59,12.84-23.48,9.44-60.23,28.41c-23.48,12.12-44.44,13.73-60.47,15.42,0,0,28.46,11.85,77.9-5.32,0,0,15.77-6.54,34.92-14.41,38-15.62,99.9-29.21,132-2.7,0,0-81.32,113.41-241.81,94.15,0,0-111.28-10.7-181.89-98.43,0,0,87.73,21.39,194.73-21.4s184-81.32,282.47-17.12c0,0,96.3-141.24-17.12-314.57,0,0-70.62-115.56-226.83-128.4S276,205.71,276,205.71s-79.18,89.87-64.2,222.55L239.65,394l32.1,40.66L266.12,504l6.77,5,69.47-219.83L336,359.78l29.95-107,59.92,160.49L383,248.51l114.3,244.87,4.11-1.83L449.36,357.64l2.14-74.89L565.4,467.81l9.56-3-12.18-38.71,23.54-92,77.14,112.4S723.27,447.52,742.53,462.5Z" transform="translate(-209.94 -93.5)" style="fill-rule:evenodd;fill:url(#5e414e58-b1df-411e-8c95-726e986be538)"/><g id="5128170e-57bc-4a17-ae5b-ba40d43b6b78" data-name="Layer 8"><text transform="translate(668.42 385.75)" style="font-size:217.79872131347656px;fill:#252525;font-family:HelveticaNeueBold, HelveticaNeue;font-weight:700;letter-spacing:-0.07500026097026151em">PLT</text><text transform="translate(1084.38 267.9)" style="font-size:50.69131088256836px;fill:#252525;font-family:Helvetica-Light, Helvetica Light;letter-spacing:0.3999968995568549em">WELLNESS<tspan x="424.13" y="0" style="font-size:12.303299903869629px;letter-spacing:0.39996573894393006em"> </tspan><tspan x="432.47" y="0" style="letter-spacing:0.4000161644463004em">&amp; </tspan><tspan x="0" y="60.83">MOUN</tspan><tspan x="235.97" y="60.83" style="letter-spacing:0.3080070524546065em">T</tspan><tspan x="279.76" y="60.83">AIN </tspan><tspan x="0" y="121.66">RESO</tspan><tspan x="216.3" y="121.66" style="letter-spacing:0.38200349281476065em">R</tspan><tspan x="269.47" y="121.66">T</tspan></text></g></svg>