<svg xmlns="http://www.w3.org/2000/svg" xmlns:xlink="http://www.w3.org/1999/xlink" viewBox="0 0 52.02 50"><defs><linearGradient id="a" x1="25.65" y1="49.5" x2="25.65" y2="1.5" gradientUnits="userSpaceOnUse"><stop offset="0" stop-color="#3798cf"/><stop offset="1" stop-color="#85edee"/></linearGradient></defs><title>Artboard 1</title><path d="M44.26,31.06s-1.58-2.58-6.53-2.75h0L35.16,24l-3.93-6.51-4.46,6.34L20.6,14.43,18.89,16,14.6,10l-7,13.2L4.66,21.46,3.14,23.89s.49-12.37,12.32-18.2a22.43,22.43,0,0,1,21.42.51S53.51,15.29,46.14,35a15.74,15.74,0,0,0-11-2.06C29,34.14,24.54,37.23,17.51,38.6S5.86,37.57,4,36.2c0,0,4.46,9.6,14.92,12.51,0,0,16.28,4.63,25.88-8.57a12.33,12.33,0,0,0-5.49-2.4,14.56,14.56,0,0,0-6.85,1s-1.88.76-4.83,2.28a12.43,12.43,0,0,1-4.84,1.23s2.28.95,6.24-.42l2.8-1.16c3-1.25,8-2.34,10.57-.21A21.18,21.18,0,0,1,23,48s-8.91-.86-14.57-7.89A27.83,27.83,0,0,0,24,38.43C32.6,35,38.77,31.91,46.66,37.06c0,0,7.71-11.32-1.38-25.2A24.31,24.31,0,0,0,27.11,1.57C14.6.55,6.89,10.49,6.89,10.49A24.57,24.57,0,0,0,1.74,28.32L4,25.57l2.57,3.26-.45,5.55.55.4L12.2,17.17l-.51,5.66,2.4-8.57,4.8,12.86-3.43-13.2,9.15,19.61.33-.15L20.77,22.66l.17-6,9.13,14.82.76-.24-1-3.1,1.88-7.37,6.18,9S42.71,29.86,44.26,31.06Z" fill-rule="evenodd" fill="url(#a)"/></svg>